<svg width="32" height="32" viewBox="150 0 82 60" preserveAspectRatio="xMidYMid meet" xmlns="http://www.w3.org/2000/svg">
  <rect x="0" y="0" width="233" height="60" fill="white"/>
  <!-- Short bar -->
  <path d="M158.184 28.0606C157.961 27.9795 157.733 27.939 157.499 27.939C156.663 27.939 155.908 28.4712 155.624 29.2568L151.28 41.214C150.905 42.2531 151.437 43.4037 152.476 43.7839C152.699 43.865 152.927 43.9055 153.161 43.9055C153.997 43.9055 154.752 43.3784 155.041 42.5877L159.38 30.6305C159.562 30.1287 159.537 29.5812 159.314 29.0997C159.086 28.6131 158.691 28.2482 158.184 28.0606Z" fill="url(#fav_p2)"/>
  <!-- Medium bar -->
  <path d="M176.948 32.0547C176.725 31.9736 176.497 31.928 176.264 31.928C175.428 31.928 174.672 32.4754 174.383 33.2915L166.015 57.0943C165.64 58.1689 166.172 59.3601 167.211 59.7453C167.434 59.8264 167.662 59.872 167.895 59.872C168.732 59.872 169.487 59.3246 169.776 58.5085L178.144 34.7057C178.327 34.1886 178.302 33.626 178.079 33.1242C177.855 32.6224 177.455 32.2422 176.953 32.0547H176.948Z" fill="url(#fav_p0)"/>
  <!-- Tall bar -->
  <path d="M201.957 0.111513C201.734 0.0354813 201.506 0 201.273 0C200.437 0 199.682 0.491669 199.393 1.22157L180.542 49.3849C180.359 49.8512 180.38 50.3581 180.608 50.8041C180.836 51.2553 181.231 51.5949 181.738 51.7672C181.956 51.8432 182.189 51.8787 182.422 51.8787C183.259 51.8787 184.014 51.387 184.303 50.6571L203.154 2.49383C203.336 2.0275 203.311 1.52063 203.088 1.06951C202.865 0.618388 202.464 0.278782 201.962 0.106444H201.957V0.111513Z" fill="url(#fav_p1)"/>
  <!-- Small bottom bar -->
  <path d="M227.413 44.0018C227.195 43.9207 226.961 43.8801 226.728 43.8801C225.892 43.8801 225.137 44.4123 224.848 45.2031L220.504 57.1856C220.321 57.6874 220.347 58.2348 220.57 58.7214C220.798 59.208 221.198 59.5781 221.7 59.7605C221.918 59.8416 222.151 59.8822 222.384 59.8822C223.221 59.8822 223.976 59.35 224.26 58.5592L228.604 46.5767C228.786 46.0698 228.761 45.5275 228.538 45.0409C228.315 44.5543 227.909 44.1843 227.407 44.0018H227.413Z" fill="url(#fav_p3)"/>
  <!-- Dots -->
  <circle cx="167.814" cy="29.926" r="2.004" fill="#4083C4"/>
  <circle cx="167.814" cy="37.9193" r="2.004" fill="#4083C4"/>
  <circle cx="176.396" cy="57.87" r="2.005" fill="#4083C4"/>
  <circle cx="176.396" cy="49.8917" r="2.005" fill="#4083C4"/>
  <!-- Dark navy shadow bars -->
  <path d="M182.392 51.8788C181.556 51.8788 180.8 51.3719 180.512 50.6116L174.419 34.5031C174.236 34.0216 174.262 33.4995 174.485 33.0332C174.708 32.5668 175.113 32.212 175.615 32.0397C175.838 31.9636 176.066 31.9231 176.299 31.9231C177.136 31.9231 177.891 32.43 178.18 33.1903L184.273 49.2988C184.455 49.7803 184.43 50.3024 184.207 50.7687C183.979 51.2351 183.583 51.5899 183.081 51.7622C182.858 51.8382 182.63 51.8788 182.397 51.8788" fill="#283A97"/>
  <path d="M167.875 59.8518C167.039 59.8518 166.284 59.3298 165.995 58.5593L155.639 30.595C155.264 29.5762 155.796 28.4458 156.835 28.0758C157.058 27.9947 157.286 27.9592 157.52 27.9592C158.356 27.9592 159.111 28.4762 159.395 29.2518L169.751 57.2161C170.126 58.2349 169.593 59.3602 168.554 59.7353C168.331 59.8164 168.103 59.8518 167.87 59.8518" fill="#283A97"/>
  <path d="M222.364 59.8822C221.528 59.8822 220.773 59.3703 220.484 58.61L199.387 2.60527C199.012 1.60673 199.545 0.496669 200.584 0.131718C200.807 0.0556868 201.035 0.0151367 201.268 0.0151367C202.104 0.0151367 202.86 0.527081 203.148 1.28739L224.25 57.2921C224.432 57.7787 224.407 58.3008 224.184 58.7671C223.961 59.2334 223.555 59.5882 223.053 59.7656C222.83 59.8417 222.602 59.8822 222.369 59.8822" fill="#283A97"/>
  <path d="M231.072 59.8822C230.236 59.8822 229.481 59.35 229.192 58.5592L224.848 46.5767C224.473 45.5376 225.005 44.3819 226.044 44.0018C226.267 43.9207 226.495 43.8801 226.728 43.8801C227.565 43.8801 228.32 44.4123 228.609 45.2031L232.953 57.1856C233.328 58.2247 232.796 59.3804 231.757 59.7605C231.534 59.8416 231.305 59.8822 231.072 59.8822Z" fill="#283A97"/>
  <defs>
    <linearGradient id="fav_p0" x1="174.31" y1="45.84" x2="186.67" y2="45.84" gradientUnits="userSpaceOnUse">
      <stop stop-color="#4083C4"/><stop offset="0.58" stop-color="#3B7EBF"/><stop offset="1" stop-color="#084E8A"/>
    </linearGradient>
    <linearGradient id="fav_p1" x1="192.892" y1="25.98" x2="215.733" y2="25.98" gradientUnits="userSpaceOnUse">
      <stop stop-color="#4083C4"/><stop offset="0.58" stop-color="#3B7EBF"/><stop offset="1" stop-color="#084E8A"/>
    </linearGradient>
    <linearGradient id="fav_p2" x1="162.685" y1="35.91" x2="171.02" y2="35.91" gradientUnits="userSpaceOnUse">
      <stop stop-color="#4083C4"/><stop offset="0.58" stop-color="#3B7EBF"/><stop offset="1" stop-color="#084E8A"/>
    </linearGradient>
    <linearGradient id="fav_p3" x1="205.816" y1="51.85" x2="214.156" y2="51.85" gradientUnits="userSpaceOnUse">
      <stop stop-color="#4083C4"/><stop offset="0.58" stop-color="#3B7EBF"/><stop offset="1" stop-color="#084E8A"/>
    </linearGradient>
  </defs>
</svg>
