<?xml version="1.0" encoding="UTF-8"?>
<svg id="Layer_1" data-name="Layer 1" xmlns="http://www.w3.org/2000/svg" viewBox="0 0 340.83 340.83">
  <defs>
    <style>
      .cls-1 {
        fill: #2f3186;
      }

      .cls-1, .cls-2, .cls-3 {
        stroke-width: 0px;
      }

      .cls-4 {
        fill: #4f7dbc;
      }

      .cls-2 {
        fill: #4182c3;
      }

      .cls-3 {
        fill: #2d3482;
      }
    </style>
  </defs>
  <polygon class="cls-3" points="91.04 250.2 93.39 250.2 93.39 257.61 95.14 257.61 95.14 250.2 97.49 250.2 97.49 248.63 91.04 248.63 91.04 250.2"/>
  <polygon class="cls-3" points="104.15 252.31 101.11 252.31 101.11 248.63 99.35 248.63 99.35 257.61 101.11 257.61 101.11 253.86 104.15 253.86 104.15 257.61 105.9 257.61 105.9 248.63 104.15 248.63 104.15 252.31"/>
  <polygon class="cls-3" points="108.44 257.61 114.35 257.61 114.35 256.05 110.19 256.05 110.19 253.87 113.73 253.87 113.73 252.31 110.19 252.31 110.19 250.2 114.35 250.2 114.35 248.63 108.44 248.63 108.44 257.61"/>
  <polygon class="cls-3" points="120.84 257.61 122.6 257.61 122.6 253.97 126.14 253.97 126.14 252.41 122.6 252.41 122.6 250.2 126.76 250.2 126.76 248.63 120.84 248.63 120.84 257.61"/>
  <rect class="cls-3" x="128.73" y="248.63" width="1.75" height="8.98"/>
  <polygon class="cls-3" points="138.14 254.13 134.58 248.63 133.02 248.63 133.02 257.61 134.77 257.61 134.77 252.1 138.32 257.61 139.89 257.61 139.89 248.63 138.14 248.63 138.14 254.13"/>
  <path class="cls-3" d="M144.71,248.63l-3.26,8.98h1.83l.54-1.59h3.19l.53,1.59h1.83l-3.28-8.98h-1.37ZM144.3,254.55l1.14-3.27,1.1,3.27h-2.23Z"/>
  <polygon class="cls-3" points="156.03 254.13 152.48 248.63 150.91 248.63 150.91 257.61 152.67 257.61 152.67 252.1 156.22 257.61 157.79 257.61 157.79 248.63 156.03 248.63 156.03 254.13"/>
  <g>
    <path class="cls-3" d="M163.32,250.12c.63,0,.95.24,1.34.63l1.16-1.16c-.64-.63-1.35-1.04-2.5-1.04-.98,0-1.79.36-2.42.99-.91.91-.88,2.03-.88,3.58s-.03,2.67.88,3.58c.63.63,1.44.99,2.42.99,1.15,0,1.85-.4,2.5-1.03l-1.16-1.16c-.39.39-.71.63-1.34.63-.48,0-.86-.18-1.11-.47-.34-.38-.44-.81-.44-2.54s.1-2.16.44-2.53c.25-.29.63-.47,1.11-.47"/>
    <rect class="cls-3" x="167.85" y="248.63" width="1.75" height="8.98"/>
    <path class="cls-3" d="M174.43,248.63l-3.27,8.98h1.83l.54-1.59h3.19l.53,1.59h1.83l-3.28-8.98h-1.37ZM174.02,254.55l1.14-3.27,1.1,3.27h-2.23Z"/>
    <polygon class="cls-3" points="182.38 248.63 180.63 248.63 180.63 257.61 186.45 257.61 186.45 256.05 182.38 256.05 182.38 248.63"/>
    <path class="cls-3" d="M194.73,248.63l-3.27,8.98h1.83l.54-1.59h3.19l.53,1.59h1.83l-3.28-8.98h-1.37ZM194.33,254.55l1.14-3.27,1.1,3.27h-2.23Z"/>
    <path class="cls-3" d="M203.82,250.12c.63,0,.95.24,1.34.63l1.16-1.16c-.64-.63-1.35-1.04-2.5-1.04-.98,0-1.79.36-2.42.99-.91.91-.88,2.03-.88,3.58s-.03,2.67.88,3.58c.63.63,1.44.99,2.42.99,1.15,0,1.85-.4,2.5-1.03l-1.16-1.16c-.39.39-.71.63-1.34.63-.48,0-.86-.18-1.11-.47-.34-.38-.44-.81-.44-2.54s.1-2.16.44-2.53c.25-.29.63-.47,1.11-.47"/>
    <path class="cls-3" d="M210.49,248.63l-3.27,8.98h1.83l.54-1.59h3.19l.53,1.59h1.83l-3.28-8.98h-1.37ZM210.08,254.55l1.14-3.27,1.1,3.27h-2.23Z"/>
    <path class="cls-3" d="M222.3,249.49c-.59-.6-1.44-.86-2.37-.86h-3.24v8.98h3.24c.93,0,1.78-.26,2.37-.86,1.01-1.01.91-2.32.91-3.67s.1-2.58-.91-3.59M221.08,255.5c-.3.37-.7.56-1.31.56h-1.33v-5.85h1.33c.61,0,1.01.19,1.31.56.33.4.38.97.38,2.33s-.05,2.01-.38,2.41"/>
    <polygon class="cls-3" points="225.44 257.61 231.36 257.61 231.36 256.05 227.2 256.05 227.2 253.87 230.74 253.87 230.74 252.31 227.2 252.31 227.2 250.2 231.36 250.2 231.36 248.63 225.44 248.63 225.44 257.61"/>
    <polygon class="cls-3" points="237.59 253.49 235.25 248.64 233.52 248.64 233.52 257.61 235.27 257.61 235.27 252.38 237 255.78 238.18 255.78 239.9 252.38 239.9 257.61 241.65 257.61 241.65 248.64 239.92 248.64 237.59 253.49"/>
    <polygon class="cls-3" points="248.41 248.63 246.76 252.25 245.08 248.63 243.18 248.63 245.88 253.93 245.88 257.61 247.62 257.61 247.62 253.93 250.32 248.63 248.41 248.63"/>
    <polygon class="cls-3" points="192.36 240.49 192.36 240.75 194.26 240.75 194.26 240.49 194.26 239.01 194.26 238.76 192.36 238.76 192.36 239.01 192.36 240.49"/>
    <polygon class="cls-3" points="195.41 239.01 195.41 240.49 195.41 240.75 197.32 240.75 197.32 238.76 195.41 238.76 195.41 239.01"/>
    <polygon class="cls-3" points="109.63 238.76 109.63 239.01 109.63 240.49 109.63 240.75 111.54 240.75 111.54 238.76 109.63 238.76"/>
    <polygon class="cls-3" points="108.49 240.49 108.49 239.01 108.49 238.76 106.59 238.76 106.59 239.01 106.59 240.49 106.59 240.75 108.49 240.75 108.49 240.49"/>
    <path class="cls-3" d="M116.31,234.09c0,.28-.05.47-.15.56-.09.1-.26.15-.51.17h-3.46c-.47,0-.76-.07-.89-.21-.04-.03-.07-.12-.07-.26v-6.15h-2.04v5.9c0,.27-.05.46-.16.56-.09.09-.26.15-.52.16h-8.97v-2.65c0-1.2-.43-2.22-1.28-3.07-.85-.85-1.87-1.27-3.07-1.27s-2.22.42-3.07,1.27c-.85.85-1.28,1.87-1.28,3.07v.34c0,1.2.43,2.22,1.28,3.06.85.85,1.87,1.28,3.07,1.28h13.3c.77,0,1.4-.22,1.9-.66.53.44,1.26.66,2.19.66h1.03s2.01,0,2.01,0c.83,0,1.49-.25,1.98-.75.5-.5.76-1.17.76-2v-10.55h-2.04v10.55ZM97.5,234.82h-2.31c-.63,0-1.18-.22-1.63-.67-.45-.45-.68-1-.68-1.63v-.35c0-.64.23-1.19.68-1.64.45-.45,1-.68,1.63-.68s1.18.23,1.63.68c.45.45.68,1,.68,1.64v2.65Z"/>
    <path class="cls-3" d="M144.67,236.1c.5-.5.75-1.17.75-2v-10.55h-2.04v10.55c0,.28-.05.47-.15.56-.09.1-.26.16-.51.17h-3.07c-.32,0-.57-.08-.75-.22.36-.67.54-1.36.54-2.09v-.34c0-1.2-.43-2.22-1.28-3.07-.85-.84-1.87-1.27-3.07-1.27s-2.22.42-3.07,1.27c-.85.85-1.27,1.87-1.27,3.07v2.65h-7.03c-.27,0-.45-.05-.56-.16-.11-.1-.16-.29-.16-.57v-10.55h-2.04v10.55c0,.84.25,1.51.76,2,.51.5,1.17.75,1.99.75h11.38c.98,0,1.86-.3,2.65-.9,0,0,.01,0,.03.02,0,.01.01.02.02.03.58.57,1.32.86,2.24.86h2.66c.83,0,1.49-.25,1.98-.75M137.4,232.51c0,.63-.23,1.18-.68,1.63-.46.44-1,.67-1.63.68h-2.31v-2.65c0-.64.23-1.19.68-1.64.44-.45.99-.68,1.63-.68s1.18.23,1.63.68c.45.45.68,1,.68,1.64v.34Z"/>
    <path class="cls-3" d="M147.4,236.6c0,.17.09.25.26.25h1.52c.17,0,.25-.08.25-.25v-13.05h-2.03v13.05Z"/>
    <polygon class="cls-3" points="176.63 238.76 174.72 238.76 174.72 239.01 174.72 240.49 174.72 240.75 176.63 240.75 176.63 238.76"/>
    <polygon class="cls-3" points="173.57 239.01 173.57 238.76 171.67 238.76 171.67 239.01 171.67 240.49 171.67 240.75 173.57 240.75 173.57 240.49 173.57 239.01"/>
    <path class="cls-3" d="M197.01,236.1c.5-.49.75-1.16.75-2v-5.9h-2.03v5.9c0,.27-.05.45-.16.56-.09.1-.27.15-.52.16h-5.12c-.32,0-.57-.08-.74-.22.36-.67.54-1.36.54-2.09v-.34c0-1.2-.42-2.22-1.27-3.07-.85-.84-1.88-1.27-3.07-1.27s-2.22.42-3.07,1.27c-.85.85-1.27,1.87-1.27,3.07v2.65h-3.75c-.46,0-.76-.07-.89-.21-.04-.03-.07-.12-.07-.26v-6.15h-2.04v5.9c0,.27-.06.46-.16.56-.09.09-.27.15-.52.16h-8.49v-2.65c0-1.2-.43-2.22-1.28-3.07-.85-.85-1.87-1.27-3.07-1.27s-2.22.42-3.06,1.27c-.85.85-1.28,1.87-1.28,3.07v.34c0,1.2.43,2.22,1.28,3.07.84.85,1.87,1.27,3.06,1.27h12.81c.77,0,1.4-.22,1.9-.66.53.44,1.26.66,2.19.66h7.71c.98,0,1.86-.3,2.64-.9,0,0,.02,0,.03.02,0,.01,0,.02.01.03.58.57,1.32.86,2.24.86h4.71c.83,0,1.49-.25,1.99-.75M163.08,234.82h-2.31c-.63,0-1.18-.22-1.63-.67-.45-.45-.68-1-.68-1.63v-.35c0-.64.22-1.18.68-1.64.45-.45,1-.68,1.63-.68s1.18.23,1.63.68c.45.46.68,1,.68,1.64v2.65ZM187.69,232.51c0,.63-.23,1.18-.68,1.63-.45.44-1,.67-1.63.68h-2.31v-2.65c0-.64.23-1.19.68-1.64.44-.45.99-.68,1.63-.68s1.17.23,1.63.68c.45.45.68,1,.68,1.64v.34Z"/>
    <path class="cls-3" d="M241.95,222.9h-2.32v-1.14c0-.18.06-.33.19-.46.12-.12.28-.19.46-.19.28,0,.48.13.59.39l.12.28.98-.3s-.02-.06-.04-.09l-.12-.28c-.28-.68-.79-1.03-1.53-1.03-.46,0-.85.17-1.18.5-.32.32-.49.71-.49,1.17v1.14h-.78v1.01h4.11v-1.01Z"/>
    <path class="cls-3" d="M245.76,233.29v-9.74h-2.04v9.76c0,.55-.12.94-.35,1.17-.24.22-.63.34-1.18.34h-6.77v2.03h6.77c1.11,0,1.98-.32,2.62-.95.64-.63.95-1.5.95-2.61"/>
    <rect class="cls-3" x="238.89" y="225.04" width="2.04" height="8.83"/>
    <rect class="cls-3" x="248.29" y="223.55" width="2.03" height="13.3"/>
    <polygon class="cls-3" points="159.92 225.85 159.92 224.37 159.92 224.11 158.02 224.11 158.02 224.37 158.02 225.85 158.02 226.11 159.92 226.11 159.92 225.85"/>
    <polygon class="cls-3" points="162.97 224.11 161.07 224.11 161.07 224.36 161.07 225.85 161.07 226.11 162.97 226.11 162.97 224.11"/>
    <polygon class="cls-3" points="94.35 225.85 94.35 224.37 94.35 224.11 92.45 224.11 92.45 224.37 92.45 225.85 92.45 226.11 94.35 226.11 94.35 225.85"/>
    <polygon class="cls-3" points="97.41 224.11 95.5 224.11 95.5 224.36 95.5 225.85 95.5 226.11 97.41 226.11 97.41 224.11"/>
    <path class="cls-3" d="M233.58,232.89c0-1-.36-1.87-1.08-2.59-.71-.71-1.57-1.07-2.58-1.07h-9.2c.27-1.61,1.25-2.42,2.94-2.42h7.56v-2.04h-7.56c-1.58,0-2.82.49-3.71,1.47-.7.76-1.12,1.75-1.27,2.97-.03.28-.06.83-.06,1.14,0,.24.08.45.25.62.17.17.37.25.61.25h10.25s.19,0,.19,0c.46,0,.84.16,1.17.49.33.33.49.71.49,1.18v.28c0,.46-.16.84-.49,1.17-.33.32-.71.48-1.17.48h-16.9c-.27,0-.46-.05-.56-.16-.11-.11-.16-.3-.16-.57v-10.55h-2.04v10.55c0,.84.25,1.51.75,2,.51.5,1.17.75,1.99.75h16.91c1,0,1.87-.36,2.58-1.07.71-.71,1.08-1.58,1.08-2.58v-.31Z"/>
    <path class="cls-3" d="M208.2,233.54v-1.95c0-1.04-.37-1.93-1.11-2.66-.73-.74-1.62-1.1-2.66-1.1h-2.61v2.04h2.61c.48,0,.89.17,1.22.5.33.33.5.74.5,1.22v1.95c0,.49-.09.81-.27.98-.21.2-.63.31-1.26.31h-4.92v2.03h4.92c.93,0,1.69-.19,2.28-.58.85-.55,1.28-1.47,1.28-2.74"/>
  </g>
  <path class="cls-4" d="M135.83,148.09l-16.32,46.44c-.74,2.09.31,4.41,2.33,5.17.43.17.88.25,1.33.25,1.63,0,3.11-1.07,3.66-2.66l16.32-46.44c.36-1.01.31-2.11-.13-3.09-.44-.98-1.22-1.72-2.2-2.09-.43-.16-.88-.25-1.33-.25-1.64,0-3.11,1.07-3.66,2.66"/>
  <path class="cls-4" d="M184.62,85.53l-36.78,93.96c-.36.91-.31,1.89.13,2.77.44.88,1.22,1.54,2.2,1.87.43.15.88.22,1.33.22,1.63,0,3.11-.96,3.66-2.39l36.78-93.96c.36-.91.31-1.9-.13-2.77-.44-.88-1.22-1.54-2.2-1.87-.43-.15-.88-.22-1.33-.22-1.63,0-3.11.96-3.66,2.39"/>
  <path class="cls-4" d="M99.22,140.22l-8.47,23.32c-.73,2.03.31,4.27,2.33,5.01.43.16.88.24,1.33.24,1.63,0,3.11-1.03,3.66-2.57l8.47-23.32c.35-.98.31-2.04-.13-2.99-.44-.95-1.22-1.67-2.2-2.02-.43-.16-.88-.24-1.33-.24-1.64,0-3.11,1.04-3.67,2.57"/>
  <path class="cls-4" d="M234.27,171.32l-8.47,23.38c-.36.98-.31,2.04.13,3,.44.95,1.22,1.67,2.2,2.03.43.16.88.24,1.33.24,1.63,0,3.11-1.04,3.66-2.58l8.47-23.37c.35-.98.31-2.05-.13-3-.44-.95-1.22-1.67-2.2-2.03-.43-.16-.88-.24-1.33-.24-1.63,0-3.1,1.04-3.66,2.58"/>
  <g>
    <path class="cls-2" d="M119.1,141.52c0,2.16,1.75,3.91,3.91,3.91s3.91-1.75,3.91-3.91-1.75-3.91-3.91-3.91-3.91,1.75-3.91,3.91"/>
    <path class="cls-2" d="M119.1,157.11c0,2.16,1.75,3.91,3.91,3.91s3.91-1.75,3.91-3.91-1.75-3.91-3.91-3.91-3.91,1.75-3.91,3.91"/>
    <path class="cls-2" d="M135.83,196.04c0,2.16,1.75,3.91,3.91,3.91s3.91-1.75,3.91-3.91-1.75-3.91-3.91-3.91-3.91,1.75-3.91,3.91"/>
    <path class="cls-2" d="M135.83,180.47c0,2.16,1.75,3.91,3.91,3.91s3.91-1.75,3.91-3.91-1.75-3.91-3.91-3.91-3.91,1.75-3.91,3.91"/>
    <path class="cls-1" d="M151.44,184.35c-1.63,0-3.11-.99-3.67-2.47l-11.89-31.42c-.36-.94-.31-1.96.13-2.87.44-.91,1.22-1.6,2.2-1.94.43-.15.88-.23,1.33-.23,1.63,0,3.1.99,3.66,2.47l11.89,31.42c.36.94.31,1.96-.13,2.87-.44.91-1.22,1.6-2.2,1.94-.43.15-.88.23-1.33.23"/>
    <path class="cls-1" d="M123.13,199.9c-1.63,0-3.11-1.01-3.67-2.52l-20.21-54.55c-.74-1.98.31-4.19,2.33-4.91.43-.15.88-.23,1.33-.23,1.63,0,3.11,1.01,3.66,2.52l20.21,54.55c.73,1.98-.31,4.19-2.33,4.91-.43.16-.88.23-1.33.23"/>
    <path class="cls-1" d="M229.43,199.96c-1.63,0-3.11-1-3.67-2.48l-41.17-109.26c-.74-1.95.31-4.12,2.33-4.83.43-.15.88-.23,1.33-.23,1.63,0,3.11,1,3.66,2.48l41.17,109.26c.36.95.31,1.97-.13,2.88-.44.91-1.22,1.6-2.2,1.95-.43.15-.88.23-1.33.23"/>
    <path class="cls-1" d="M246.42,199.96c-1.63,0-3.11-1.04-3.67-2.58l-8.47-23.37c-.74-2.03.31-4.28,2.33-5.02.43-.16.88-.24,1.33-.24,1.63,0,3.11,1.04,3.67,2.58l8.47,23.37c.74,2.03-.31,4.28-2.33,5.02-.43.16-.88.24-1.33.24"/>
  </g>
</svg>
